# xmcd
#
# Track frame offsets:
#	182
#	11812
#	20812
#	32287
#	42487
#	52435
#	63700
#	77335
#	89197
#	100310
#	113700
#	124650
#
# Disc length: 1961 seconds
# Revision: 0
# Processed by: cddbd v1.5.2PL0 Copyright (c) Steve Scherf et al.
# Submitted via: dBpowerAMP V12.0
#
DISCID=a607a70c
DTITLE=Bobby Vinton - Collector's Series Volume V
DYEAR=1980
DGENRE=Polka
TTITLE0=Beer Barrel Polka
TTITLE1=Pennsylvania Polka
TTITLE2=Too Fat Polka
TTITLE3=Just Because
TTITLE4=Tick Tock Polka
TTITLE5=The Most Beautiful Girl in the World
TTITLE6=Polka Radio
TTITLE7=That's Amore
TTITLE8=Don't Let My Mary Go Round
TTITLE9=Never Ending Love
TTITLE10=Strike Up the Band
TTITLE11=Polka Medly
EXTD=
EXTT0=
EXTT1=
EXTT2=
EXTT3=
EXTT4=
EXTT5=
EXTT6=
EXTT7=
EXTT8=
EXTT9=
EXTT10=
EXTT11=
PLAYORDER=
